HIERARCHY
ROOT Hips
{
	OFFSET 0.00000 0.00000 0.00000
	CHANNELS 6 Xposition Yposition Zposition Zrotation Yrotation Xrotation 
	JOINT LHipJoint
	{
		OFFSET 0 0 0
		CHANNELS 3 Zrotation Yrotation Xrotation
		JOINT LeftUpLeg
		{
			OFFSET 1.34019 -1.87553 0.90315
			CHANNELS 3 Zrotation Yrotation Xrotation
			JOINT LeftLeg
			{
				OFFSET 2.55316 -7.01474 0.00000
				CHANNELS 3 Zrotation Yrotation Xrotation
				JOINT LeftFoot
				{
					OFFSET 2.64657 -7.27139 0.00000
					CHANNELS 3 Zrotation Yrotation Xrotation
					JOINT LeftToeBase
					{
						OFFSET 0.24207 -0.66507 2.14489
						CHANNELS 3 Zrotation Yrotation Xrotation
						End Site
						{
							OFFSET 0.00000 -0.00000 1.12451
						}
					}
				}
			}
		}
	}
	JOINT RHipJoint
	{
		OFFSET 0 0 0
		CHANNELS 3 Zrotation Yrotation Xrotation
		JOINT RightUpLeg
		{
			OFFSET -1.28320 -1.87553 0.90315
			CHANNELS 3 Zrotation Yrotation Xrotation
			JOINT RightLeg
			{
				OFFSET -2.60484 -7.15674 0.00000
				CHANNELS 3 Zrotation Yrotation Xrotation
				JOINT RightFoot
				{
					OFFSET -2.60296 -7.15159 0.00000
					CHANNELS 3 Zrotation Yrotation Xrotation
					JOINT RightToeBase
					{
						OFFSET -0.31082 -0.85398 2.28998
						CHANNELS 3 Zrotation Yrotation Xrotation
						End Site
						{
							OFFSET -0.00000 -0.00000 1.21611
						}
					}
				}
			}
		}
	}
	JOINT LowerBack
	{
		OFFSET 0 0 0
		CHANNELS 3 Zrotation Yrotation Xrotation
		JOINT Spine
		{
			OFFSET -0.00160 2.05581 -0.15156
			CHANNELS 3 Zrotation Yrotation Xrotation
			JOINT Spine1
			{
				OFFSET 0.04594 2.06326 -0.01617
				CHANNELS 3 Zrotation Yrotation Xrotation
				JOINT Neck
				{
					OFFSET 0 0 0
					CHANNELS 3 Zrotation Yrotation Xrotation
					JOINT Neck1
					{
						OFFSET 0.03753 1.73883 0.26751
						CHANNELS 3 Zrotation Yrotation Xrotation
						JOINT Head
						{
							OFFSET -0.09795 1.76129 -0.31794
							CHANNELS 3 Zrotation Yrotation Xrotation
							End Site
							{
								OFFSET -0.03611 1.79987 -0.13846
							}
						}
					}
				}
				JOINT LeftShoulder
				{
					OFFSET 0 0 0
					CHANNELS 3 Zrotation Yrotation Xrotation
					JOINT LeftArm
					{
						OFFSET 3.30667 1.29205 -0.22445
						CHANNELS 3 Zrotation Yrotation Xrotation
						JOINT LeftForeArm
						{
							OFFSET 4.92785 -0.00000 -0.00000
							CHANNELS 3 Zrotation Yrotation Xrotation
							JOINT LeftHand
							{
								OFFSET 3.44052 -0.00000 0.00000
								CHANNELS 3 Zrotation Yrotation Xrotation
								JOINT LeftFingerBase
								{
									OFFSET 0 0 0
									CHANNELS 3 Zrotation Yrotation Xrotation
									JOINT LeftHandIndex1
									{
										OFFSET 0.65433 -0.00000 0.00000
										CHANNELS 3 Zrotation Yrotation Xrotation
										End Site
										{
											OFFSET 0.52753 -0.00000 0.00000
										}
									}
								}
								JOINT LThumb
								{
									OFFSET 0 0 0
									CHANNELS 3 Zrotation Yrotation Xrotation
									End Site
									{
										OFFSET 0.53559 -0.00000 0.53559
									}
								}
							}
						}
					}
				}
				JOINT RightShoulder
				{
					OFFSET 0 0 0
					CHANNELS 3 Zrotation Yrotation Xrotation
					JOINT RightArm
					{
						OFFSET -3.20032 1.49783 -0.27688
						CHANNELS 3 Zrotation Yrotation Xrotation
						JOINT RightForeArm
						{
							OFFSET -5.09181 -0.00000 -0.00000
							CHANNELS 3 Zrotation Yrotation Xrotation
							JOINT RightHand
							{
								OFFSET -3.49865 -0.00000 -0.00000
								CHANNELS 3 Zrotation Yrotation Xrotation
								JOINT RightFingerBase
								{
									OFFSET 0 0 0
									CHANNELS 3 Zrotation Yrotation Xrotation
									JOINT RightHandIndex1
									{
										OFFSET -0.66641 -0.00000 0.00000
										CHANNELS 3 Zrotation Yrotation Xrotation
										End Site
										{
											OFFSET -0.53728 -0.00000 0.00000
										}
									}
								}
								JOINT RThumb
								{
									OFFSET 0 0 0
									CHANNELS 3 Zrotation Yrotation Xrotation
									End Site
									{
										OFFSET -0.54548 -0.00000 0.54548
									}
								}
							}
						}
					}
				}
			}
		}
	}
}
MOTION
Frames: 13
Frame Time: .0083333
1.1257 19.6498 -0.2296 -12.1382 6.6073 1.5208 0.0000 0.0000 0.0000 -15.4264 -7.0234 -13.6909 1.5583 7.8780 22.3441 -0.1943 10.7074 -11.7467 0.7948 -5.6906 -15.8892 0.0000 0.0000 0.0000 19.0995 -8.4510 -15.5839 -16.7000 -19.7369 80.3108 0.5583 -14.0275 0.1860 -0.0334 1.1790 -3.2413 3.6545 1.5146 12.8388 5.1047 3.0271 -0.9934 2.7951 1.4374 -8.3955 4.6366 -1.3659 -22.2597 -4.3337 -2.3862 19.8684 -2.6446 -1.2707 9.8667 -0.0000 0.0000 0.0000 -77.4744 20.1634 30.7647 27.7277 -38.8643 -9.9523 -0.0000 0.0000 -13.0658 19.6667 -7.1897 -2.5611 -7.1250 0.0000 -0.0000 -5.2070 22.3601 2.8461 -0.0000 0.0000 0.0000 73.8428 -23.9700 29.5524 -24.0057 35.1703 -7.7098 0.0000 -0.0000 -12.3403 -17.4855 -2.3387 0.7365 7.1250 -0.0000 -0.0000 7.3433 -32.3731 2.2864
1.0895 19.5690 -0.0146 -12.3272 6.9714 1.7147 0.0000 0.0000 0.0000 -15.1614 -7.6922 -14.1697 1.1981 6.9451 19.5528 -0.1532 10.5023 -12.2463 0.8355 -5.8310 -16.2949 0.0000 0.0000 0.0000 19.5703 -8.7162 -15.0444 -16.5447 -19.7113 79.8504 0.5850 -14.2941 0.0363 -0.0338 1.1870 -3.2634 3.5925 1.4409 12.5897 5.1279 2.9084 -1.0562 2.8832 1.3846 -8.3221 4.6475 -1.3855 -22.0622 -4.2935 -2.4188 19.7923 -2.6312 -1.2799 9.8028 -0.0000 0.0000 0.0000 -77.4960 20.5379 30.7328 27.7908 -38.9230 -9.9920 -0.0000 0.0000 -12.8879 19.5324 -7.2359 -2.5585 -7.1250 0.0000 -0.0000 -5.3050 22.3179 2.9052 -0.0000 0.0000 0.0000 74.3950 -24.0316 28.9298 -22.8519 33.9265 -7.0555 0.0000 -0.0000 -12.0094 -17.4929 -2.3078 0.7271 7.1250 -0.0000 -0.0000 7.3344 -32.3412 2.2893
1.0552 19.4743 0.2004 -12.5784 7.2471 1.8678 0.0000 0.0000 0.0000 -14.7728 -8.3860 -14.6320 0.9170 6.1015 17.0791 -0.1272 10.4086 -12.6068 0.8713 -5.9513 -16.6431 0.0000 0.0000 0.0000 20.0674 -8.9330 -14.5430 -16.4391 -19.6932 79.5374 0.6079 -14.5060 -0.1279 -0.0323 1.1601 -3.1893 3.5982 1.3821 12.3436 5.1617 2.8193 -1.0974 2.9380 1.3434 -8.2248 4.6507 -1.4053 -21.8308 -4.2209 -2.4553 19.7097 -2.6048 -1.2875 9.7311 -0.0000 0.0000 0.0000 -77.5118 20.8912 30.6793 27.8507 -38.9784 -10.0296 -0.0000 0.0000 -12.6937 19.3466 -7.3111 -2.5583 -7.1250 0.0000 -0.0000 -5.4401 22.2479 2.9885 -0.0000 0.0000 0.0000 74.9447 -24.0585 28.3056 -21.7450 32.6877 -6.4476 0.0000 -0.0000 -11.7189 -17.4653 -2.2656 0.7126 7.1250 -0.0000 -0.0000 7.3526 -32.2968 2.3030
1.0232 19.3648 0.4139 -12.8831 7.3955 1.9699 0.0000 0.0000 0.0000 -14.2685 -9.0629 -15.1017 0.7122 5.3936 15.0345 -0.1176 10.4400 -12.8461 0.9002 -6.0468 -16.9203 0.0000 0.0000 0.0000 20.5696 -9.0707 -14.0740 -16.3872 -19.6841 79.3831 0.6259 -14.6591 -0.2879 -0.0353 1.2130 -3.3352 3.6682 1.3526 12.1209 5.2031 2.7790 -1.1102 2.9542 1.3233 -8.1091 4.7109 -1.3988 -21.5598 -4.1885 -2.4630 19.5488 -2.5953 -1.2832 9.6248 -0.0000 -0.0000 0.0000 -77.5332 21.2144 30.5986 27.9092 -39.0325 -10.0665 -0.0000 0.0000 -12.4897 19.1222 -7.4051 -2.5586 -7.1250 0.0000 -0.0000 -5.6031 22.1603 3.0902 -0.0000 -0.0000 0.0000 75.4804 -24.0489 27.6834 -20.7017 31.4784 -5.8934 0.0000 -0.0000 -11.4747 -17.3792 -2.2343 0.6991 7.1250 -0.0000 -0.0000 7.4186 -32.2620 2.3303
0.9939 19.2400 0.6256 -13.2629 7.4181 1.9879 0.0000 0.0000 0.0000 -13.6345 -9.6781 -15.5762 0.5767 4.8631 13.5185 -0.1200 10.5436 -12.9724 0.9197 -6.1100 -17.1039 0.0000 0.0000 0.0000 21.0922 -9.1436 -13.5972 -16.3865 -19.6840 79.3811 0.6384 -14.7447 -0.4579 -0.0406 1.3006 -3.5764 3.8351 1.3397 11.9660 5.2537 2.7781 -1.0956 2.9169 1.3180 -7.9998 4.6851 -1.4086 -21.3043 -4.0584 -2.4881 19.4761 -2.5424 -1.2809 9.5545 0.0000 -0.0000 0.0000 -77.5563 21.5308 30.4729 27.9770 -39.0950 -10.1092 -0.0000 0.0000 -12.2980 18.8622 -7.4348 -2.5313 -7.1250 0.0000 -0.0000 -5.7924 22.1420 3.1980 0.0000 -0.0000 0.0000 76.0045 -24.0247 27.0727 -19.7444 30.3332 -5.4017 0.0000 -0.0000 -11.3019 -17.1888 -2.2824 0.7058 7.1250 -0.0000 -0.0000 7.5759 -32.3070 2.3721
0.9667 19.1003 0.8353 -13.6995 7.3101 1.9066 0.0000 0.0000 0.0000 -12.8950 -10.2122 -16.0532 0.5020 4.5419 12.6065 -0.1275 10.6474 -13.0036 0.9430 -6.1850 -17.3222 0.0000 0.0000 0.0000 21.6177 -9.1484 -13.0891 -16.4375 -19.6930 79.5325 0.6474 -14.7763 -0.6775 -0.0505 1.4502 -3.9885 4.0702 1.3422 11.8877 5.3091 2.8107 -1.0477 2.8388 1.3261 -7.8965 4.7403 -1.3811 -21.0182 -3.9820 -2.4737 19.3436 -2.5144 -1.2613 9.4579 -0.0000 -0.0000 0.0000 -77.5885 21.8434 30.2830 28.0419 -39.1548 -10.1502 -0.0000 0.0000 -12.0961 18.6004 -7.5002 -2.5153 -7.1250 0.0000 -0.0000 -5.9825 22.0863 3.3117 -0.0000 -0.0000 0.0000 76.5185 -23.9961 26.4718 -18.8657 29.2514 -4.9650 0.0000 -0.0000 -11.1177 -16.9230 -2.2624 0.6882 7.1250 -0.0000 -0.0000 7.7868 -32.2794 2.4445
0.9415 18.9457 1.0428 -14.1587 7.0878 1.7294 0.0000 0.0000 0.0000 -12.0991 -10.6630 -16.5643 0.4846 4.4640 12.3858 -0.1317 10.6492 -12.9268 0.9786 -6.2972 -17.6491 0.0000 0.0000 0.0000 22.1003 -9.1144 -12.5508 -16.5391 -19.7104 79.8340 0.6524 -14.7503 -0.9476 -0.0698 1.7049 -4.6909 4.3423 1.3577 11.8982 5.3644 2.8696 -0.9658 2.7335 1.3455 -7.8061 4.7553 -1.3488 -20.7408 -3.8575 -2.4504 19.2859 -2.4640 -1.2341 9.3911 0.0000 0.0000 0.0000 -77.6273 22.1539 30.0493 28.1155 -39.2224 -10.1967 -0.0000 0.0000 -11.8882 18.3724 -7.5764 -2.5074 -7.1250 0.0000 -0.0000 -6.1476 22.0178 3.4138 0.0000 0.0000 0.0000 77.0201 -23.9626 25.8620 -18.0767 28.2552 -4.5855 0.0000 -0.0000 -10.8856 -16.5669 -2.2860 0.6798 7.1250 -0.0000 -0.0000 8.0743 -32.2944 2.5333
0.9179 18.7767 1.2489 -14.5905 6.7607 1.4654 0.0000 0.0000 0.0000 -11.3457 -10.9233 -17.2260 0.5337 4.6813 13.0019 -0.1332 10.5429 -12.7168 1.0930 -6.6438 -18.6642 0.0000 0.0000 0.0000 22.4799 -9.0594 -11.9806 -16.6886 -19.7350 80.2768 0.6541 -14.6686 -1.3049 -0.0922 1.9584 -5.3906 4.5996 1.3837 11.9845 5.4106 2.9436 -0.8587 2.6227 1.3727 -7.7317 4.8421 -1.2858 -20.3958 -3.8122 -2.3854 19.1567 -2.4450 -1.1922 9.2871 0.0000 -0.0000 0.0000 -77.6769 22.4856 29.7768 28.1982 -39.2980 -10.2490 -0.0000 0.0000 -11.6524 18.1923 -7.6728 -2.5124 -7.1250 0.0000 -0.0000 -6.2773 21.9259 3.4998 0.0000 -0.0000 0.0000 77.4972 -23.9543 25.2575 -17.3691 27.3418 -4.2555 0.0000 -0.0000 -10.5501 -16.1738 -2.2270 0.6457 7.1250 -0.0000 -0.0000 8.3827 -32.2231 2.6464
0.8948 18.5980 1.4540 -14.9697 6.3546 1.1268 0.0000 0.0000 0.0000 -10.7622 -10.6995 -18.2357 0.6720 5.2420 14.6001 -0.1310 10.2140 -12.1965 1.2499 -7.0882 -19.9770 0.0000 0.0000 0.0000 22.7451 -9.0050 -11.3932 -16.8749 -19.7642 80.8282 0.6551 -14.5715 -1.7321 -0.1125 2.1627 -5.9554 4.7948 1.4180 12.1465 5.4494 3.0237 -0.7266 2.5362 1.4053 -7.6757 4.9319 -1.2086 -20.0676 -3.7909 -2.2958 19.0425 -2.4325 -1.1413 9.1924 -0.0000 0.0000 0.0000 -77.7457 22.8131 29.4726 28.2833 -39.3757 -10.3029 -0.0000 0.0000 -11.4159 18.0754 -7.8153 -2.5412 -7.1250 0.0000 -0.0000 -6.3603 21.7829 3.5675 -0.0000 0.0000 0.0000 77.9488 -23.9581 24.6419 -16.7397 26.5133 -3.9704 0.0000 -0.0000 -10.1129 -15.7478 -2.0652 0.5822 7.1250 -0.0000 -0.0000 8.7058 -32.0458 2.7880
0.8726 18.4174 1.6559 -15.2955 5.8943 0.7526 0.0000 0.0000 0.0000 -10.3631 -10.0502 -19.5900 0.9175 6.1031 17.0837 -0.1235 9.7024 -11.4692 1.3736 -7.4170 -20.9567 0.0000 0.0000 0.0000 22.9210 -8.9425 -10.8441 -17.0820 -19.7946 81.4402 0.6576 -14.5001 -2.1781 -0.1306 2.3294 -6.4168 4.9317 1.4599 12.3878 5.4846 3.1122 -0.5921 2.4755 1.4437 -7.6646 5.0383 -1.1157 -19.6999 -3.8100 -2.1777 18.9215 -2.4326 -1.0804 9.0891 -0.0000 -0.0000 0.0000 -77.8329 23.1291 29.1663 28.3746 -39.4588 -10.3609 -0.0000 0.0000 -11.1863 18.0324 -8.0054 -2.5959 -7.1250 0.0000 -0.0000 -6.3890 21.5869 3.6123 -0.0000 -0.0000 0.0000 78.3591 -23.9744 24.0307 -16.1837 25.7691 -3.7255 0.0000 -0.0000 -9.5941 -15.3367 -1.8488 0.5069 7.1250 -0.0000 -0.0000 9.0100 -31.8139 2.9384
0.8504 18.2412 1.8531 -15.5729 5.4538 0.3292 0.0000 0.0000 0.0000 -10.0703 -9.3602 -21.1832 1.3093 7.2483 20.4532 -0.1191 9.2054 -10.6935 1.3626 -7.3883 -20.8711 0.0000 0.0000 0.0000 23.0412 -8.9187 -10.3327 -17.3064 -19.8251 82.1024 0.6641 -14.4867 -2.6278 -0.1401 2.4126 -6.6474 5.0236 1.4871 12.7466 5.5141 3.1846 -0.4534 2.4341 1.4750 -7.7171 5.0824 -1.0186 -19.4647 -3.7592 -2.0554 19.0111 -2.4048 -1.0119 9.0845 0.0000 0.0000 0.0000 -77.9463 23.3762 28.8362 28.4463 -39.5238 -10.4065 -0.0000 0.0000 -10.9245 18.0504 -8.2145 -2.6660 -7.1250 0.0000 -0.0000 -6.3733 21.3679 3.6352 0.0000 0.0000 0.0000 78.7588 -23.9847 23.3839 -15.6923 25.1016 -3.5144 0.0000 -0.0000 -8.9630 -15.0181 -1.5253 0.4092 7.1250 -0.0000 -0.0000 9.2281 -31.4756 3.0872
0.8262 18.0835 2.0427 -15.6693 5.1034 -0.1095 0.0000 0.0000 0.0000 -9.9534 -8.9702 -22.7885 1.8514 8.5494 24.3956 -0.1173 8.7997 -10.0047 1.1330 -6.7602 -19.0069 0.0000 0.0000 0.0000 22.9943 -8.9618 -9.9297 -17.5416 -19.8545 82.7954 0.6741 -14.5326 -3.0167 -0.1472 2.4725 -6.8134 4.9108 1.4983 13.2497 5.5003 3.2149 -0.3233 2.4660 1.4912 -7.8678 5.0516 -0.9270 -19.3265 -3.5944 -1.9487 19.2028 -2.3309 -0.9422 9.1342 0.0000 -0.0000 0.0000 -78.0728 23.5162 28.4926 28.4828 -39.5569 -10.4297 -0.0000 0.0000 -10.6404 18.1494 -8.4496 -2.7577 -7.1250 0.0000 -0.0000 -6.2993 21.1173 3.6283 0.0000 -0.0000 0.0000 79.1790 -23.9545 22.6587 -15.2547 24.4998 -3.3309 0.0000 -0.0000 -8.2172 -14.8482 -1.1496 0.3047 7.1250 -0.0000 -0.0000 9.3225 -31.0884 3.2073
0.7937 17.9150 2.2156 -15.3830 4.9581 -0.5119 0.0000 0.0000 0.0000 -10.1839 -9.1288 -24.3607 2.5290 9.8904 28.6224 -0.1111 8.4624 -9.5488 0.7795 -5.6368 -15.7342 0.0000 0.0000 0.0000 22.5406 -9.1182 -9.7988 -17.8507 -19.8889 83.7046 0.6783 -14.5199 -3.4363 -0.1490 2.4872 -6.8541 4.3909 1.4793 13.9020 5.3791 3.1420 -0.2041 2.6291 1.4699 -8.1272 4.9597 -0.8364 -19.3892 -3.3133 -1.8622 19.5433 -2.2148 -0.8718 9.2731 0.0000 -0.0000 0.0000 -78.2038 23.4583 28.1061 28.4355 -39.5141 -10.3996 -0.0000 0.0000 -10.3094 18.3274 -8.6679 -2.8579 -7.1250 0.0000 -0.0000 -6.1691 20.8795 3.5858 0.0000 -0.0000 0.0000 79.6718 -23.8071 21.7703 -14.8487 23.9349 -3.1643 0.0000 -0.0000 -7.3529 -14.8714 -0.7791 0.2069 7.1250 -0.0000 -0.0000 9.2659 -30.7106 3.2724
